#N canvas 325 179 1355 843 12;
#X obj 110 34 hsl 170 20 0 1 0 0 \$0-index empty index -2 -10 0 12
#fcfcfc #000000 #000000 0 1;
#N canvas 0 50 450 250 (subpatch) 0;
#X array \$0-endpoint-a 16 float 3;
#A 0 24.2864 68.714 77.9998 72.8575 74.4291 77.8572 60.7144 60.7155
85.7139 62.8566 83 76.5714 72.2857 60.8571 51.5714 42.2857;
#X coords 0 100 16 0 200 140 1 0 0;
#X restore 100 140 graph;
#N canvas 2655 446 450 250 (subpatch) 0;
#X array \$0-endpoint-b 16 float 3;
#A 0 35.0003 52.8571 53.5714 28.5715 45 46.4286 42.1429 39.286 37.8571
47.8573 62.1429 78.5714 90.7143 97.8567 99.2852 97.8571;
#X coords 0 100 16 0 200 140 1 0 0;
#X restore 300 140 graph;
#N canvas 2655 446 450 250 (subpatch) 0;
#X array \$0-result 16 float 3;
#A 0 0.00948006 0.352539 0.633133 0.114253 0.31655 0.419622 0.120425
0.102507 0.410397 0.188516 1.37721 2.38545 3.67946 2.81414 1.76831
0.945767;
#X coords 0 100 16 0 200 140 1 0 0;
#X restore 190 363 graph;
#X msg 595 176 16;
#X obj 595 204 until;
#X obj 595 242 f;
#X obj 643 249 + 1;
#X msg 652 201 0, f 2;
#X obj 595 318 t f f f, f 48;
#X obj 761 404 *;
#X obj 595 416 *, f 15;
#X obj 595 444 +, f 24;
#X obj 697 283 abs;
#X obj 698 258 - 1;
#X floatatom 107 61 5 0 0 0 - - - 0;
#X obj 538 45 inlet;
#X obj 538 76 clip 0 1;
#X obj 554 106 r \$0-index;
#X obj 538 560 array get \$0-result;
#X obj 761 374 tabread \$0-endpoint-b;
#X obj 595 375 tabread \$0-endpoint-a;
#X obj 595 527 tabwrite \$0-result, f 48;
#X obj 595 271 t f f;
#X obj 538 141 t b b b f f, f 33;
#X obj 1283 733 outlet;
#X obj 1233 733 outlet;
#X obj 1184 733 outlet;
#X obj 1134 733 outlet;
#X obj 1084 733 outlet;
#X obj 1035 733 outlet;
#X obj 985 733 outlet;
#X obj 935 733 outlet;
#X obj 886 733 outlet;
#X obj 836 733 outlet;
#X obj 786 733 outlet;
#X obj 737 733 outlet;
#X obj 687 733 outlet;
#X obj 637 733 outlet;
#X obj 588 733 outlet;
#X obj 538 733 outlet;
#X obj 538 616 unpack f f f f f f f f f f f f f f f f, f 107;
#X obj 595 500 dbtorms;
#X obj 790 117 array set \$0-endpoint-a;
#X obj 790 30 inlet;
#X obj 820 88 array set \$0-endpoint-b;
#X obj 790 58 route a b;
#X obj 1019 29 inlet;
#X obj 595 473 +, f 61;
#X text 1068 30 offset (dB);
#X obj 40 494 bng 15 250 50 0 empty empty empty 17 7 0 10 #fcfcfc #000000
#000000;
#X obj 40 523 array get \$0-endpoint-a;
#X obj 39 634 bng 15 250 50 0 empty empty empty 17 7 0 10 #fcfcfc #000000
#000000;
#X obj 39 663 array get \$0-endpoint-b;
#X msg 39 714 b 35.0003 52.8571 53.5714 28.5715 45 46.4286 42.1429
39.286 37.8571 47.8573 62.1429 78.5714 90.7143 97.8567 99.2852 97.8571
;
#X msg 40 574 a 24.2864 68.714 77.9998 72.8575 74.4291 77.8572 60.7144
60.7155 85.7139 62.8566 83 76.5714 72.2857 60.8571 51.5714 42.2857
;
#X obj 39 688 prepend set b;
#X obj 40 548 prepend set a;
#X connect 0 0 15 0;
#X connect 4 0 5 0;
#X connect 5 0 6 0;
#X connect 6 0 23 0;
#X connect 7 0 6 1;
#X connect 8 0 6 1;
#X connect 9 0 21 0;
#X connect 9 1 20 0;
#X connect 9 2 22 1;
#X connect 10 0 12 1;
#X connect 11 0 12 0;
#X connect 12 0 48 0;
#X connect 13 0 11 1;
#X connect 14 0 13 0;
#X connect 16 0 17 0;
#X connect 17 0 24 0;
#X connect 18 0 24 0;
#X connect 19 0 41 0;
#X connect 20 0 10 0;
#X connect 21 0 11 0;
#X connect 23 0 9 0;
#X connect 23 1 7 0;
#X connect 24 0 19 0;
#X connect 24 1 4 0;
#X connect 24 2 8 0;
#X connect 24 3 14 0;
#X connect 24 4 10 1;
#X connect 41 0 40 0;
#X connect 41 1 39 0;
#X connect 41 2 38 0;
#X connect 41 3 37 0;
#X connect 41 4 36 0;
#X connect 41 5 35 0;
#X connect 41 6 34 0;
#X connect 41 7 33 0;
#X connect 41 8 32 0;
#X connect 41 9 31 0;
#X connect 41 10 30 0;
#X connect 41 11 29 0;
#X connect 41 12 28 0;
#X connect 41 13 27 0;
#X connect 41 14 26 0;
#X connect 41 15 25 0;
#X connect 42 0 22 0;
#X connect 44 0 46 0;
#X connect 46 0 43 0;
#X connect 46 1 45 0;
#X connect 47 0 48 1;
#X connect 48 0 42 0;
#X connect 50 0 51 0;
#X connect 51 0 57 0;
#X connect 52 0 53 0;
#X connect 53 0 56 0;
#X connect 56 0 54 0;
#X connect 57 0 55 0;
#X coords 0 -1 1 1 400 180 1 100 100;
