#N canvas 1210 525 482 386 12;
#X obj 130 175 /;
#X obj 130 112 + 1;
#X msg 130 143 200 \$1;
#X obj 44 224 slop~ 0 0 0.2 0 1e+09;
#X obj 43 41 inlet~;
#X obj 43 275 outlet~;
#X obj 130 42 inlet;
#N canvas 1567 478 200 270 defaults 0;
#X obj 30 240 outlet;
#X obj 30 60 loadbang;
#X obj 30 106 makefilename .%c1;
#X obj 30 129 select .\$1;
#X msg 30 82 36;
#X obj 110 180 f \$1;
#X obj 110 154 t b;
#X msg 30 180 1000;
#X connect 1 0 4 0;
#X connect 2 0 3 0;
#X connect 3 0 7 0;
#X connect 3 1 6 0;
#X connect 4 0 2 0;
#X connect 5 0 0 0;
#X connect 6 0 5 0;
#X connect 7 0 0 0;
#X restore 226 44 pd defaults;
#X connect 0 0 3 3;
#X connect 1 0 2 0;
#X connect 2 0 0 0;
#X connect 3 0 5 0;
#X connect 4 0 3 0;
#X connect 6 0 1 0;
#X connect 7 0 1 0;
