#N canvas 1988 400 474 414 12;
#X obj 101 279 del 6000;
#X msg 94 320 0;
#X msg 57 321 1;
#X msg 73 128 stop;
#X obj 56 72 sel 1, f 13;
#X obj 57 357 outlet;
#X obj 258 173 r polyphony;
#X obj 180 169 f;
#X obj 213 169 + 1;
#X obj 147 102 t b b;
#X obj 72 101 t b b;
#X msg 196 138 0;
#X obj 180 199 > 4;
#X obj 180 245 sel 0 1;
#X obj 56 19 inlet;
#X floatatom 210 222 5 0 0 0 - - -;
#X floatatom 263 203 5 0 0 0 - - -;
#X connect 0 0 1 0;
#X connect 1 0 5 0;
#X connect 2 0 5 0;
#X connect 3 0 0 0;
#X connect 4 0 2 0;
#X connect 4 0 10 0;
#X connect 4 1 9 0;
#X connect 6 0 12 1;
#X connect 6 0 16 0;
#X connect 7 0 8 0;
#X connect 7 0 12 0;
#X connect 8 0 7 1;
#X connect 9 0 0 0;
#X connect 9 1 7 0;
#X connect 10 0 3 0;
#X connect 10 1 11 0;
#X connect 11 0 7 1;
#X connect 12 0 13 0;
#X connect 12 0 15 0;
#X connect 13 0 0 0;
#X connect 13 1 1 0;
#X connect 14 0 4 0;
