#N canvas 2598 246 1025 631 12;
#X declare -lib iemlib;
#X text 71 18 A vanilla replacement for the iemlib peakenv~;
#X obj 414 19 declare -lib iemlib;
#X floatatom 376 210 5 0 1000 0 - \$0-decay-speed-init - 0;
#N canvas 392 300 639 450 generate-test 0;
#X obj 45 196 osc~ 440;
#X msg 98 166 -0.25;
#X obj 165 239 *~;
#X obj 147 270 *~;
#X obj 147 395 outlet~;
#X obj 165 153 f;
#X msg 165 178 1 \, 0 \$1;
#X obj 338 87 loadbang;
#X obj 383 157 s \$0-decay-speed-init;
#X msg 338 127 30;
#X obj 97 78 metro 500;
#X obj 97 25 inlet;
#X msg 383 127 500;
#X obj 183 25 inlet;
#X obj 165 204 line~;
#X obj 338 187 s \$0-pulse-length-init;
#X obj 253 25 inlet;
#X obj 253 243 pow 4;
#X obj 253 294 line~;
#X msg 253 268 \$1 10;
#X obj 235 321 *~;
#X obj 235 352 dac~;
#X connect 0 0 3 0;
#X connect 1 0 0 1;
#X connect 2 0 3 1;
#X connect 3 0 4 0;
#X connect 3 0 20 0;
#X connect 5 0 6 0;
#X connect 6 0 14 0;
#X connect 7 0 9 0;
#X connect 7 0 12 0;
#X connect 9 0 15 0;
#X connect 10 0 5 0;
#X connect 10 0 1 0;
#X connect 11 0 10 0;
#X connect 12 0 8 0;
#X connect 13 0 5 1;
#X connect 14 0 2 0;
#X connect 14 0 2 1;
#X connect 16 0 17 0;
#X connect 17 0 19 0;
#X connect 18 0 20 1;
#X connect 19 0 18 0;
#X connect 20 0 21 0;
#X connect 20 0 21 1;
#X restore 81 147 pd generate-test;
#X floatatom 135 109 5 1 100 2 pulse-length \$0-pulse-length-init - 0;
#X obj 82 283 env~ 1024;
#X obj 172 211 abs~;
#X obj 173 352 snapshot~;
#X obj 173 385 rmstodb;
#X obj 161 451 vu 18 160 empty VU -20 20 0 12 #404040 #000000 1 0;
#X obj 83 384 - 100;
#X obj 173 410 - 100;
#X obj 81 70 tgl 19 0 empty empty empty 17 7 0 10 #dcdcdc #000000 #000000 0 1;
#X text 356 210 ms;
#X text 374 187 decay speed;
#X obj 193 118 hsl 128 19 0 1 0 0 empty empty Volume 32 9 0 12 #dcdcdc #000000 #000000 0 1;
#X msg 401 99 \; pd dsp \$1;
#X text 105 69 <- turn on test pulse;
#X obj 401 72 tgl 19 0 empty empty empty 17 7 0 10 #dfdfdf #000000 #000000 0 1;
#X obj 82 317 t f b b;
#X obj 338 353 snapshot~;
#X obj 338 386 rmstodb;
#X obj 326 452 vu 18 160 empty VU -20 20 0 12 #404040 #000000 1 0;
#X obj 338 411 - 100;
#X obj 83 410 t f f;
#X obj 173 281 chair.peakenv~ 1000;
#X obj 337 283 peakenv~ 1000;
#X connect 2 0 25 1;
#X connect 2 0 26 1;
#X connect 3 0 5 0;
#X connect 3 0 6 0;
#X connect 4 0 3 1;
#X connect 5 0 19 0;
#X connect 6 0 25 0;
#X connect 6 0 26 0;
#X connect 7 0 8 0;
#X connect 8 0 11 0;
#X connect 10 0 24 0;
#X connect 11 0 9 1;
#X connect 12 0 3 0;
#X connect 15 0 3 2;
#X connect 18 0 16 0;
#X connect 19 0 10 0;
#X connect 19 1 7 0;
#X connect 19 2 20 0;
#X connect 20 0 21 0;
#X connect 21 0 23 0;
#X connect 23 0 22 1;
#X connect 24 0 9 0;
#X connect 24 1 22 0;
#X connect 25 0 7 0;
#X connect 26 0 20 0;
