#N canvas 2848 691 739 509 10;
#X declare -path chair;
#X declare -path ./abstractions;
#N canvas 161 289 1523 854 rotaries 0;
#X obj 103 119 vsl 15 35 0 1 0 0 \$0-hsl1 \$0-hsl1r empty 0 -9 0 10
-262144 -1 -1 0 1;
#X obj 130 119 vsl 15 35 0 1 0 0 \$0-hsl2 \$0-hsl2r empty 0 -9 0 10
-262144 -1 -1 0 1;
#X obj 159 119 vsl 15 35 0 1 0 0 \$0-hsl3 \$0-hsl3r empty 0 -9 0 10
-262144 -1 -1 0 1;
#X obj 458 532 list prepend;
#X obj 458 552 list trim;
#X obj 349 196 * 64;
#X obj 543 200 * 64;
#X obj 752 190 * 64;
#X obj 458 465 pack 0 0 0;
#X obj 522 374 t b f;
#X obj 588 372 t b f;
#X obj 458 578 s \$0-params-list;
#X obj 661 506 text set \$0-rotary-states;
#X obj 662 529 text define -k \$0-rotary-states;
#A set 0.558824 0.0588235 0.470588 \; 0.456801 0.487135 0.296875 \;
0.421875 0.875 0.5625 \; 0.65625 0.8125 0.875 \; 0 0.5625 1 \; 0 1
0 \; 0.184743 0.250919 0.860294 \; 0.6875 0.890625 0.28125 \; -0.00275707
1.00092 1.00092 \; 0.794118 0.297794 0.235294 \; 0.0441179 1.00092
0.547794 \; 0.356618 0.891544 0.641544 \; 0.53125 0.984375 0.671875
\; 0.3125 0.859375 0.671875 \; 0.015625 0.015625 0 \; 0.03125 0 0 \;
0.046875 0 0 \; 0.0625 0 0 \; 0.28125 0.015625 0 \; 2 1.5 0.625 \;
0.125 0.328125 0.71875 \; 0.296875 0 0 \; 0.3125 0 0.484375 \; 0.71875
0.140625 -0.015625 \;;
#X obj 723 51 text get \$0-rotary-states;
#X obj 723 4 r \$0-fieldn;
#X obj 723 74 unpack f f f;
#X obj 699 112 s \$0-hsl1r;
#X obj 733 134 s \$0-hsl2r;
#X obj 768 156 s \$0-hsl3r;
#X obj 264 248 s \$0-hsl1r;
#X obj 456 250 s \$0-hsl2r;
#X obj 665 241 s \$0-hsl3r;
#X obj 458 326 r \$0-hsl1;
#X obj 522 327 r \$0-hsl2;
#X obj 589 328 r \$0-hsl3;
#X obj 264 218 rotary-range 64;
#X obj 456 222 rotary-range 64;
#X obj 665 213 rotary-range 64;
#X obj 458 349 change;
#X obj 522 350 change;
#X obj 589 351 change;
#X obj 458 372 t b f;
#X obj 458 442 f;
#X obj 458 420 del 0;
#X obj 546 533 r \$0-fieldn;
#X obj 723 27 t f f;
#X obj 261 547 s \$0-fieldn;
#X obj 261 302 notein;
#X obj 261 326 stripnote;
#X obj 261 412 mod 12;
#X obj 261 349 t f f;
#X obj 342 385 div 12;
#X obj 261 458 list trim;
#X obj 261 481 route 0 1;
#X obj 286 505 + 12;
#X floatatom 542 556 5 0 0 0 - - -;
#X msg 858 222 0.558824 0.0588235 0.470588 \, 0.456801 0.487135 0.296875
\, 0.421875 0.875 0.5625 \, 0.65625 0.8125 0.875 \, 0 0.5625 1 \, 0
1 0 \, 0.184743 0.250919 0.860294 \, 0.6875 0.890625 0.28125 \, -0.00275707
1.00092 1.00092 \, 0.794118 0.297794 0.235294 \, 0.0441179 1.00092
0.547794 \, 0.356618 0.891544 0.641544 \, 0.53125 0.984375 0.671875
\, 0.3125 0.859375 0.671875 \,;
#X obj 858 414 t a b;
#X obj 883 436 f;
#X obj 921 439 + 1;
#X obj 858 129 bng 15 250 50 0 empty empty empty 17 7 0 10 -262144
-1 -1;
#X obj 858 152 t b b;
#X msg 891 190 0;
#X obj 857 101 r \$0-reset;
#X obj 264 115 ctlin 11;
#X obj 456 138 ctlin 12;
#X obj 631 132 ctlin 13;
#X obj 387 385 ctlin 16;
#X obj 264 140 chair.rotary-relative;
#X obj 456 166 chair.rotary-relative;
#X obj 631 164 chair.rotary-relative;
#X obj 261 435 list prepend 0;
#X obj 342 410 != 2, f 8;
#N canvas 4 180 455 521 LED 0;
#X obj 50 129 ctlout 46;
#X obj 113 129 ctlout 47;
#X obj 180 131 ctlout 48;
#X obj 49 273 ctlout 49;
#X obj 118 273 ctlout 50;
#X obj 189 274 ctlout 51;
#X obj 45 438 ctlout 52;
#X obj 108 439 ctlout 53;
#X obj 173 439 ctlout 54;
#X obj 50 38 * 127;
#X msg 50 75 0;
#X obj 49 201 * 127;
#X obj 45 346 * 127;
#X obj 301 76 ctlout 55;
#X msg 301 50 10;
#X obj 301 25 loadbang;
#X obj 50 102 change;
#X msg 118 227 0;
#X obj 118 249 change;
#X msg 173 393 0;
#X obj 173 415 change;
#X obj 50 11 r \$0-hsl1r;
#X obj 49 177 r \$0-hsl2r;
#X obj 45 322 r \$0-hsl3r;
#X connect 9 0 1 0;
#X connect 9 0 2 0;
#X connect 9 0 10 0;
#X connect 10 0 16 0;
#X connect 11 0 3 0;
#X connect 11 0 5 0;
#X connect 11 0 17 0;
#X connect 12 0 6 0;
#X connect 12 0 7 0;
#X connect 12 0 19 0;
#X connect 14 0 13 0;
#X connect 15 0 14 0;
#X connect 16 0 0 0;
#X connect 17 0 18 0;
#X connect 18 0 4 0;
#X connect 19 0 20 0;
#X connect 20 0 8 0;
#X connect 21 0 9 0;
#X connect 22 0 11 0;
#X connect 23 0 12 0;
#X restore 1123 421 pd LED;
#X obj 141 263 r tr;
#X obj 141 301 f;
#X obj 169 303 + 1;
#X floatatom 133 376 5 0 0 0 - - -;
#X obj 196 303 % 14;
#X floatatom 163 581 5 0 0 0 - - -;
#X floatatom 206 582 5 0 0 0 - - -;
#X connect 3 0 4 0;
#X connect 4 0 11 0;
#X connect 5 0 26 1;
#X connect 6 0 27 1;
#X connect 7 0 28 1;
#X connect 8 0 3 0;
#X connect 8 0 12 0;
#X connect 9 0 34 0;
#X connect 9 1 8 1;
#X connect 10 0 34 0;
#X connect 10 1 8 2;
#X connect 14 0 16 0;
#X connect 15 0 36 0;
#X connect 16 0 17 0;
#X connect 16 0 5 0;
#X connect 16 1 18 0;
#X connect 16 1 6 0;
#X connect 16 2 19 0;
#X connect 16 2 7 0;
#X connect 23 0 29 0;
#X connect 24 0 30 0;
#X connect 25 0 31 0;
#X connect 26 0 20 0;
#X connect 27 0 21 0;
#X connect 28 0 22 0;
#X connect 29 0 32 0;
#X connect 30 0 9 0;
#X connect 31 0 10 0;
#X connect 32 0 34 0;
#X connect 32 1 33 1;
#X connect 33 0 8 0;
#X connect 34 0 33 0;
#X connect 35 0 3 1;
#X connect 35 0 46 0;
#X connect 36 0 14 0;
#X connect 36 1 12 1;
#X connect 38 0 39 0;
#X connect 38 1 39 1;
#X connect 39 0 41 0;
#X connect 40 0 62 0;
#X connect 41 0 40 0;
#X connect 41 1 42 0;
#X connect 42 0 63 0;
#X connect 43 0 44 0;
#X connect 44 0 37 0;
#X connect 44 0 70 0;
#X connect 44 1 45 0;
#X connect 45 0 37 0;
#X connect 45 0 71 0;
#X connect 47 0 48 0;
#X connect 48 0 12 0;
#X connect 48 1 49 0;
#X connect 49 0 50 0;
#X connect 49 0 12 1;
#X connect 50 0 49 1;
#X connect 51 0 52 0;
#X connect 52 0 47 0;
#X connect 52 1 53 0;
#X connect 53 0 49 1;
#X connect 54 0 51 0;
#X connect 55 0 59 0;
#X connect 56 0 60 0;
#X connect 57 0 61 0;
#X connect 58 0 63 1;
#X connect 59 0 26 0;
#X connect 60 0 27 0;
#X connect 61 0 28 0;
#X connect 62 0 43 0;
#X connect 63 0 62 1;
#X connect 65 0 66 0;
#X connect 66 0 67 0;
#X connect 66 0 68 0;
#X connect 66 0 37 0;
#X connect 67 0 69 0;
#X connect 69 0 66 1;
#X coords 0 -1 1 1 85 60 1 100 100;
#X restore 98 97 pd rotaries;
#N canvas 4 61 450 300 init 0;
#X obj 235 49 loadbang;
#X msg 131 93 0.75;
#X obj 131 116 s \$0-shake;
#X msg 201 102 -20;
#X obj 201 125 s \$0-sensitivity;
#X obj 306 128 s \$0-activate;
#X msg 309 102 1;
#X connect 0 0 1 0;
#X connect 0 0 3 0;
#X connect 0 0 6 0;
#X connect 1 0 2 0;
#X connect 3 0 4 0;
#X connect 6 0 5 0;
#X restore 261 85 pd init;
#N canvas 75 270 1359 611 instruments 1;
#X obj 267 321 cowbell~ \$0 5;
#X obj 615 342 *~ 0.5;
#X obj 683 341 *~ 0.5;
#X obj 729 341 *~ 0.5;
#X obj 798 341 *~ 0.5;
#X obj 729 318 stcymb~ \$0 8;
#X obj 1080 313 bongo~ \$0 10;
#X obj 13 320 stsnare~ \$0 6;
#X obj 97 320 stsnare~ \$0 7;
#X obj 614 320 stcymb~ \$0 3;
#X obj 353 321 cowbell~ \$0 0;
#X obj 439 321 cowbell~ \$0 1;
#X obj 527 321 cowbell~ \$0 9;
#X obj 844 340 *~ 0.5;
#X obj 912 340 *~ 0.5;
#X obj 843 317 stcymb~ \$0 4;
#X obj 959 339 *~ 0.5;
#X obj 1032 339 *~ 0.5;
#X obj 958 316 stcymb~ \$0 13;
#X obj 1172 311 bongo~ \$0 11;
#X obj 1263 311 bongo~ \$0 12;
#X obj 183 320 stsnare~ \$0 2;
#X obj 12 155 inlet~;
#X obj 12 516 outlet~;
#X obj 1033 544 outlet~;
#X obj 1081 338 *~ 1.5;
#X obj 1125 337 *~ 1.5;
#X obj 1173 334 *~ 1.5;
#X obj 1219 334 *~ 1.5;
#X obj 1263 334 *~ 1.5;
#X obj 1309 334 *~ 1.5;
#X connect 0 0 23 0;
#X connect 0 1 24 0;
#X connect 1 0 23 0;
#X connect 2 0 24 0;
#X connect 3 0 23 0;
#X connect 4 0 24 0;
#X connect 5 0 3 0;
#X connect 5 1 4 0;
#X connect 6 0 25 0;
#X connect 6 1 26 0;
#X connect 7 0 23 0;
#X connect 7 1 24 0;
#X connect 8 0 23 0;
#X connect 8 1 24 0;
#X connect 9 0 1 0;
#X connect 9 1 2 0;
#X connect 10 0 23 0;
#X connect 10 1 24 0;
#X connect 11 0 23 0;
#X connect 11 1 24 0;
#X connect 12 0 23 0;
#X connect 12 1 24 0;
#X connect 13 0 23 0;
#X connect 14 0 24 0;
#X connect 15 0 13 0;
#X connect 15 1 14 0;
#X connect 16 0 23 0;
#X connect 17 0 24 0;
#X connect 18 0 16 0;
#X connect 18 1 17 0;
#X connect 19 0 27 0;
#X connect 19 1 28 0;
#X connect 20 0 29 0;
#X connect 20 1 30 0;
#X connect 21 0 23 0;
#X connect 21 1 24 0;
#X connect 22 0 9 0;
#X connect 22 0 6 0;
#X connect 22 0 10 0;
#X connect 22 0 7 0;
#X connect 22 0 18 0;
#X connect 22 0 15 0;
#X connect 22 0 5 0;
#X connect 22 0 21 0;
#X connect 22 0 8 0;
#X connect 22 0 0 0;
#X connect 22 0 12 0;
#X connect 22 0 11 0;
#X connect 22 0 20 0;
#X connect 22 0 19 0;
#X connect 25 0 23 0;
#X connect 26 0 24 0;
#X connect 27 0 23 0;
#X connect 28 0 24 0;
#X connect 29 0 23 0;
#X connect 30 0 24 0;
#X restore 49 327 pd instruments;
#N canvas 4 188 573 492 midside 1;
#X obj 23 427 outlet~;
#X obj 131 429 outlet~;
#X obj 22 187 +~;
#X obj 144 186 -~;
#X obj 23 332 +~;
#X obj 131 334 -~;
#X obj 21 34 inlet~ left;
#X obj 160 31 inlet~ right;
#X obj 21 210 *~ 0.707107;
#X obj 145 209 *~ 0.707107;
#X obj 22 252 *~;
#X obj 96 149 sig~ 1;
#X obj 96 172 -~;
#X obj 97 257 *~ 2;
#X obj 282 249 *~ 2;
#X obj 146 257 *~;
#X obj 282 218 clip~ 0 1;
#X obj 173 155 clip~ 0 1;
#X obj 281 189 +~ 1;
#X text 242 417 philipp schmalfuß \, 2019;
#X text 239 327 based on Robin Schmidt's stereo processing tutorial:
http://www.rs-met.com/documents/tutorials/StereoProcessing.pdf, f
63;
#X obj 24 354 *~ 0.353554;
#X obj 132 357 *~ 0.353554;
#X obj 281 120 sig~ -0.5;
#X connect 2 0 8 0;
#X connect 3 0 9 0;
#X connect 4 0 21 0;
#X connect 5 0 22 0;
#X connect 6 0 2 0;
#X connect 6 0 3 0;
#X connect 7 0 2 1;
#X connect 7 0 3 1;
#X connect 8 0 10 0;
#X connect 9 0 15 0;
#X connect 10 0 4 0;
#X connect 10 0 5 0;
#X connect 11 0 12 0;
#X connect 12 0 13 0;
#X connect 13 0 10 1;
#X connect 14 0 15 1;
#X connect 15 0 4 1;
#X connect 15 0 5 1;
#X connect 16 0 14 0;
#X connect 17 0 12 1;
#X connect 18 0 16 0;
#X connect 21 0 0 0;
#X connect 22 0 1 0;
#X connect 23 0 18 0;
#X connect 23 0 17 0;
#X restore 49 353 pd midside;
#X obj 50 388 chair.stereogain~;
#X obj 50 462 dac~;
#X obj 49 235 chair.dynamics~;
#N canvas 235 123 590 300 init 0;
#X obj 213 67 loadbang;
#X obj 213 139 outlet;
#X msg 213 90 threshold-compress -17.1717 \, threshold-expand -42.4242
\, attack 0 \, release 70 \, compress 65.6566 \, expand 72.7273 \,
gain 18.1818 \, dry/wet 0 \, lookahead 64 \, peak \,;
#X obj 83 146 ctlout 102;
#X msg 83 119 0;
#X connect 0 0 2 0;
#X connect 0 0 4 0;
#X connect 2 0 1 0;
#X connect 4 0 3 0;
#X restore 136 214 pd init;
#X obj 264 349 bng 30 250 50 0 empty empty empty 17 7 0 10 -262144
-1 -1;
#X obj 264 384 s \$0-reset;
#X obj 50 63 adc~ 1;
#X obj 50 435 hip~ 4;
#X obj 94 435 hip~ 4;
#X obj 262 64 declare -path chair;
#X text 261 189 In the percussion set patch. on every hexagon is a
different sound. Each sound has three parameters \, which can be controlled
by the three rotaries \, they will affect the last played sound of
the pad last played. Each pad memorizes its parameters., f 38;
#X text 262 330 reset to default;
#X text 261 134 Press up or down button to initialize!;
#X obj 262 42 declare -path ./abstractions;
#X obj 545 112 s polyphony;
#X floatatom 544 84 5 0 0 0 - - -;
#N canvas 0 50 539 448 tests 0;
#X obj 67 33 inlet;
#X obj 309 189 inlet;
#X obj 235 207 line~;
#X obj 235 230 cos~;
#X obj 235 68 loadbang;
#X msg 235 91 -0.25;
#X obj 235 276 *~;
#X obj 186 309 hip~ 5;
#X floatatom 308 218 0 0 0 0 - - -;
#X obj 308 264 osc~ 440;
#X obj 308 241 mtof;
#X obj 235 253 *~ 0.1;
#X obj 308 299 *~;
#X obj 326 325 *~;
#X obj 292 330 *~;
#X msg 279 150 -0.25 \, 0.25 \$1;
#X obj 41 148 biquad~ 0 0 1 -1 0;
#X obj 63 70 t b;
#X obj 104 72 del 3;
#X obj 57 101 1;
#X obj 96 101 0;
#X obj 41 355 outlet~;
#X obj 279 126 inlet;
#X obj 51 192 *~;
#X connect 0 0 17 0;
#X connect 1 0 8 0;
#X connect 2 0 3 0;
#X connect 3 0 11 0;
#X connect 4 0 5 0;
#X connect 5 0 2 0;
#X connect 6 0 7 0;
#X connect 7 0 21 0;
#X connect 8 0 10 0;
#X connect 9 0 6 1;
#X connect 9 0 12 0;
#X connect 9 0 12 1;
#X connect 9 0 13 0;
#X connect 10 0 9 0;
#X connect 11 0 6 0;
#X connect 12 0 13 1;
#X connect 12 0 6 1;
#X connect 12 0 14 0;
#X connect 12 0 14 1;
#X connect 13 0 6 1;
#X connect 14 0 6 1;
#X connect 15 0 2 0;
#X connect 16 0 23 0;
#X connect 17 0 18 0;
#X connect 17 0 19 0;
#X connect 18 0 20 0;
#X connect 19 0 16 0;
#X connect 19 0 23 1;
#X connect 20 0 16 0;
#X connect 20 0 23 1;
#X connect 22 0 15 0;
#X connect 23 0 21 0;
#X restore 551 300 pd tests;
#X msg 590 181 10;
#X msg 588 208 20;
#X msg 587 236 100;
#X msg 586 261 500;
#X floatatom 631 273 0 0 0 0 - - -;
#X text 670 242 tone;
#X text 669 258 pitch;
#X text 629 181 tone;
#X text 630 198 bursts;
#X text 666 276 (60 for;
#X text 649 296 middle C);
#X obj 545 159 tgl 15 0 empty empty empty 17 7 0 10 -262144 -1 -1 0
1;
#X obj 528 241 del 2;
#X obj 540 216 s tr;
#X obj 522 192 metro 500;
#X floatatom 566 166 5 0 0 0 - - -;
#X connect 2 0 3 0;
#X connect 2 1 3 1;
#X connect 3 0 4 0;
#X connect 3 1 4 1;
#X connect 4 0 11 0;
#X connect 4 1 12 0;
#X connect 6 0 2 0;
#X connect 7 0 6 1;
#X connect 8 0 9 0;
#X connect 10 0 6 0;
#X connect 11 0 5 0;
#X connect 12 0 5 1;
#X connect 19 0 18 0;
#X connect 21 0 20 1;
#X connect 22 0 20 1;
#X connect 23 0 20 1;
#X connect 24 0 20 1;
#X connect 25 0 20 2;
#X connect 32 0 35 0;
#X connect 33 0 20 0;
#X connect 35 0 33 0;
#X connect 35 0 34 0;
#X connect 36 0 35 1;
